<?xml version="1.0" encoding="UTF-8"?>
<svg xmlns="http://www.w3.org/2000/svg" viewBox="0 0 110 78" shape-rendering="crispEdges">
  <defs>
    <linearGradient id="g" x1="18" y1="0" x2="92" y2="0" gradientUnits="userSpaceOnUse" color-interpolation="linearRGB">
      <stop offset="0%" stop-color="#14002e"/>
      <stop offset="6%" stop-color="#1a0037"/>
      <stop offset="20%" stop-color="#200040"/>
      <stop offset="39%" stop-color="#260149"/>
      <stop offset="61%" stop-color="#2c0153"/>
      <stop offset="80%" stop-color="#33015d"/>
      <stop offset="94%" stop-color="#3a0266"/>
      <stop offset="100%" stop-color="#410270"/>
    </linearGradient>
    <linearGradient id="gs" x1="18" y1="0" x2="92" y2="0" gradientUnits="userSpaceOnUse" color-interpolation="linearRGB">
      <stop offset="0%" stop-color="#0a0016"/>
      <stop offset="6%" stop-color="#0d001a"/>
      <stop offset="20%" stop-color="#10001f"/>
      <stop offset="39%" stop-color="#130023"/>
      <stop offset="61%" stop-color="#160028"/>
      <stop offset="80%" stop-color="#19012c"/>
      <stop offset="94%" stop-color="#1c0131"/>
      <stop offset="100%" stop-color="#1f0136"/>
    </linearGradient>
  </defs>
  <g fill="url(#gs)">
    <rect x="29" y="20" width="9" height="20"/>
    <rect x="38" y="30" width="9" height="10"/>
    <rect x="47" y="20" width="9" height="10"/>
    <rect x="65" y="20" width="9" height="10"/>
    <rect x="74" y="20" width="9" height="20"/>
    <rect x="83" y="20" width="9" height="10"/>
    <rect x="29" y="40" width="9" height="20"/>
    <rect x="47" y="40" width="9" height="20"/>
    <rect x="74" y="40" width="9" height="20"/>
  </g>
  <g fill="url(#g)">
    <rect x="27" y="18" width="9" height="20"/>
    <rect x="36" y="28" width="9" height="10"/>
    <rect x="45" y="18" width="9" height="10"/>
    <rect x="63" y="18" width="9" height="10"/>
    <rect x="72" y="18" width="9" height="20"/>
    <rect x="81" y="18" width="9" height="10"/>
    <rect x="27" y="38" width="9" height="20"/>
    <rect x="45" y="38" width="9" height="20"/>
    <rect x="72" y="38" width="9" height="20"/>
  </g>
</svg>
